<svg width="32" height="32" viewBox="0 0 32 32" fill="none" xmlns="http://www.w3.org/2000/svg">
<path d="M11.3333 19C11.3333 21.56 13.44 23.6667 16 23.6667C18.56 23.6667 20.6666 21.56 20.6666 19" stroke="#090A0A" stroke-width="1.5" stroke-miterlimit="10" stroke-linecap="round" stroke-linejoin="round"/>
<path d="M11.7467 2.66666L6.91998 7.50666" stroke="#090A0A" stroke-width="1.5" stroke-miterlimit="10" stroke-linecap="round" stroke-linejoin="round"/>
<path d="M20.2534 2.66666L25.08 7.50666" stroke="#090A0A" stroke-width="1.5" stroke-miterlimit="10" stroke-linecap="round" stroke-linejoin="round"/>
<path d="M2.66669 10.4667C2.66669 7.99999 3.98669 7.79999 5.62669 7.79999H26.3734C28.0134 7.79999 29.3334 7.99999 29.3334 10.4667C29.3334 13.3333 28.0134 13.1333 26.3734 13.1333H5.62669C3.98669 13.1333 2.66669 13.3333 2.66669 10.4667Z" stroke="#090A0A" stroke-width="1.5"/>
<path d="M4.66669 13.3333L6.54669 24.8533C6.97335 27.44 8.00002 29.3333 11.8134 29.3333H19.8534C24 29.3333 24.6134 27.52 25.0934 25.0133L27.3334 13.3333" stroke="#090A0A" stroke-width="1.5" stroke-linecap="round"/>
</svg>
