<svg width="32" height="32" viewBox="0 0 32 32" fill="none" xmlns="http://www.w3.org/2000/svg">
<path d="M26.6267 13.3333H5.29333V24C5.29333 28 6.62667 29.3333 10.6267 29.3333H21.2933C25.2933 29.3333 26.6267 28 26.6267 24V13.3333Z" stroke="#090A0A" stroke-width="1.5" stroke-miterlimit="10" stroke-linecap="round" stroke-linejoin="round"/>
<path d="M28.6666 9.33332V10.6667C28.6666 12.1333 27.96 13.3333 26 13.3333H5.99998C3.95998 13.3333 3.33331 12.1333 3.33331 10.6667V9.33332C3.33331 7.86666 3.95998 6.66666 5.99998 6.66666H26C27.96 6.66666 28.6666 7.86666 28.6666 9.33332Z" stroke="#090A0A" stroke-width="1.5" stroke-miterlimit="10" stroke-linecap="round" stroke-linejoin="round"/>
<path d="M15.52 6.66668H8.16C7.70666 6.17335 7.72 5.41335 8.2 4.93335L10.0933 3.04001C10.5867 2.54668 11.4 2.54668 11.8933 3.04001L15.52 6.66668Z" stroke="#090A0A" stroke-width="1.5" stroke-miterlimit="10" stroke-linecap="round" stroke-linejoin="round"/>
<path d="M23.8267 6.66668H16.4667L20.0933 3.04001C20.5867 2.54668 21.4 2.54668 21.8933 3.04001L23.7867 4.93335C24.2667 5.41335 24.28 6.17335 23.8267 6.66668Z" stroke="#090A0A" stroke-width="1.5" stroke-miterlimit="10" stroke-linecap="round" stroke-linejoin="round"/>
<path d="M11.92 13.3333V20.1867C11.92 21.2533 13.0933 21.88 13.9866 21.3067L15.24 20.48C15.6933 20.1867 16.2666 20.1867 16.7066 20.48L17.8933 21.28C18.7733 21.8667 19.96 21.24 19.96 20.1733V13.3333H11.92Z" stroke="#090A0A" stroke-width="1.5" stroke-miterlimit="10" stroke-linecap="round" stroke-linejoin="round"/>
</svg>
